# xmcd
#
# Track frame offsets:
#	150
#	24041
#	50410
#	81763
#	117121
#	146431
#	182516
#	208789
#	244848
#	283090
#
# Disc length: 4279 seconds
#
# Revision: 1
# Processed by: cddbd v1.5PL3 Copyright (c) Steve Scherf et al.
# Submitted via: audiograbber 1.82.02
#
DISCID=8210b50a
DTITLE=UNDETEMINTED - MIX
DYEAR=1966
DGENRE=VALLENATOS
TTITLE0=VBCV
TTITLE1=VB
TTITLE2=BCV
TTITLE3=CVB
TTITLE4=VCB
TTITLE5=CVB
TTITLE6=VB
TTITLE7=BVC
TTITLE8=VBC
TTITLE9=CVB10
EXTD=
EXTT0=
EXTT1=
EXTT2=
EXTT3=
EXTT4=
EXTT5=
EXTT6=
EXTT7=
EXTT8=
EXTT9=
PLAYORDER=
